<svg xmlns="http://www.w3.org/2000/svg" xmlns:xlink="http://www.w3.org/1999/xlink" width="500" zoomAndPan="magnify" viewBox="0 0 375 374.999991" height="500" preserveAspectRatio="xMidYMid meet" version="1.0"><defs><clipPath id="41a4f0baac"><path d="M 1 13.125 L 374 13.125 L 374 361.875 L 1 361.875 Z M 1 13.125 " clip-rule="nonzero"/></clipPath></defs><g clip-path="url(#41a4f0baac)"><path fill="#545454" d="M 177.996094 66.398438 C 201.449219 66.398438 222.636719 75.898438 237.980469 91.246094 C 253.238281 106.589844 262.742188 127.777344 262.742188 151.144531 C 262.742188 174.507812 253.238281 195.695312 237.980469 211.039062 C 232.835938 216.097656 227.171875 220.542969 220.980469 224.207031 C 221.9375 224.46875 222.984375 224.816406 224.03125 225.078125 C 236.933594 228.914062 249.140625 234.40625 260.476562 241.207031 C 272.332031 231.703125 287.503906 226.035156 303.984375 226.035156 C 313.136719 226.035156 321.855469 227.78125 329.878906 231.007812 C 331.707031 225.253906 333.101562 219.410156 334.238281 213.480469 C 335.894531 204.589844 336.679688 195.347656 336.679688 185.84375 C 336.679688 143.035156 318.980469 104.148438 290.292969 76.074219 C 261.609375 48 221.9375 30.5625 177.996094 30.5625 C 134.140625 30.5625 94.472656 48 65.785156 76.074219 C 37.101562 104.148438 19.402344 143.035156 19.402344 185.84375 C 19.402344 221.15625 31.433594 253.761719 51.660156 279.832031 C 65.523438 262.21875 82.960938 247.570312 102.753906 237.109375 C 112.953125 231.703125 123.765625 227.34375 135.101562 224.207031 C 128.910156 220.542969 123.242188 216.097656 118.1875 211.039062 C 102.839844 195.695312 93.335938 174.507812 93.335938 151.144531 C 93.335938 127.777344 102.839844 106.589844 118.1875 91.246094 C 133.445312 75.898438 154.628906 66.398438 177.996094 66.398438 Z M 321.59375 266.40625 C 324.472656 262.570312 329.964844 261.785156 333.800781 264.75 C 337.636719 267.539062 338.421875 273.03125 335.542969 276.867188 L 302.0625 321.507812 C 299.1875 325.34375 293.695312 326.128906 289.859375 323.25 C 289.335938 322.816406 288.8125 322.292969 288.375 321.769531 L 288.375 321.855469 L 272.59375 302.761719 C 269.542969 299.101562 270.066406 293.605469 273.816406 290.554688 C 277.476562 287.417969 282.96875 287.941406 286.023438 291.6875 L 294.742188 302.238281 Z M 248.007812 254.023438 C 238.941406 248.96875 229.261719 244.871094 219.0625 241.816406 C 206.070312 237.894531 192.296875 235.890625 177.996094 235.890625 C 153.757812 235.890625 131.003906 241.90625 110.949219 252.453125 C 92.203125 262.480469 75.988281 276.429688 63.34375 293.171875 C 64.128906 294.042969 64.914062 294.828125 65.785156 295.613281 C 94.472656 323.773438 134.140625 341.125 177.996094 341.125 C 191.421875 341.125 204.328125 339.554688 216.535156 336.589844 C 225.949219 334.324219 235.015625 331.183594 243.734375 327.347656 C 238.070312 317.496094 234.84375 306.074219 234.84375 293.957031 C 234.84375 279.046875 239.726562 265.269531 248.007812 254.023438 Z M 254.546875 341.472656 C 243.824219 346.53125 232.488281 350.628906 220.632812 353.503906 C 206.941406 356.816406 192.644531 358.648438 177.996094 358.648438 C 129.433594 358.648438 85.492188 339.292969 53.578125 308.082031 C 21.667969 276.78125 1.878906 233.621094 1.878906 185.84375 C 1.878906 138.152344 21.667969 94.992188 53.578125 63.695312 C 85.492188 32.480469 129.433594 13.125 177.996094 13.125 C 226.648438 13.125 270.589844 32.480469 302.5 63.695312 C 334.410156 94.992188 354.203125 138.152344 354.203125 185.84375 C 354.203125 196.21875 353.242188 206.507812 351.324219 216.621094 C 349.929688 224.554688 347.925781 232.226562 345.484375 239.636719 C 348.011719 241.554688 350.453125 243.648438 352.71875 245.914062 C 365.273438 258.210938 373.121094 275.210938 373.121094 293.957031 C 373.121094 312.703125 365.273438 329.703125 352.71875 341.996094 C 340.253906 354.289062 322.988281 361.875 303.984375 361.875 C 284.886719 361.875 267.625 354.289062 255.15625 341.996094 Z M 340.601562 258.296875 C 331.183594 249.140625 318.28125 243.472656 303.984375 243.472656 C 289.597656 243.472656 276.691406 249.140625 267.363281 258.296875 C 258.035156 267.449219 252.28125 280.007812 252.28125 293.957031 C 252.28125 307.90625 258.035156 320.460938 267.363281 329.617188 C 276.691406 338.769531 289.597656 344.4375 303.984375 344.4375 C 318.28125 344.4375 331.183594 338.769531 340.601562 329.617188 C 349.84375 320.460938 355.597656 307.90625 355.597656 293.957031 C 355.597656 280.007812 349.84375 267.449219 340.601562 258.296875 Z M 225.601562 103.539062 C 213.394531 91.417969 196.65625 83.921875 177.996094 83.921875 C 159.425781 83.921875 142.6875 91.417969 130.480469 103.539062 C 118.273438 115.746094 110.773438 132.570312 110.773438 151.144531 C 110.773438 169.714844 118.273438 186.539062 130.480469 198.660156 C 142.6875 210.867188 159.425781 218.363281 177.996094 218.363281 C 196.65625 218.363281 213.394531 210.867188 225.601562 198.660156 C 237.808594 186.539062 245.304688 169.714844 245.304688 151.144531 C 245.304688 132.570312 237.808594 115.746094 225.601562 103.539062 Z M 177.996094 218.363281 Z M 177.996094 218.363281 " fill-opacity="1" fill-rule="nonzero"/></g></svg>