<svg xmlns="http://www.w3.org/2000/svg" xmlns:xlink="http://www.w3.org/1999/xlink" width="500" zoomAndPan="magnify" viewBox="0 0 375 374.999991" height="500" preserveAspectRatio="xMidYMid meet" version="1.0"><defs><clipPath id="365e2d1bb7"><path d="M 24 0 L 351 0 L 351 372.75 L 24 372.75 Z M 24 0 " clip-rule="nonzero"/></clipPath></defs><g clip-path="url(#365e2d1bb7)"><path fill="#003554" d="M 323.90625 183.503906 C 303.566406 266.527344 257.628906 324.566406 187.359375 356.089844 C 117.117188 324.566406 71.183594 266.527344 50.839844 183.503906 C 36.972656 126.820312 40.074219 76.640625 41.5625 61.027344 C 63.324219 56.007812 143.832031 36.796875 187.359375 16.757812 C 230.914062 36.796875 311.425781 56.007812 333.1875 61.027344 C 334.671875 76.640625 337.777344 126.820312 323.90625 183.503906 Z M 347.882812 53.367188 C 347.355469 50.265625 345.007812 47.789062 341.9375 47.097656 C 340.882812 46.898438 237.453125 23.824219 190.757812 1.207031 C 188.644531 0.183594 186.136719 0.183594 184.023438 1.207031 C 137.292969 23.824219 33.867188 46.898438 32.808594 47.128906 C 29.773438 47.789062 27.394531 50.265625 26.867188 53.367188 C 26.765625 53.929688 18.082031 114.835938 35.78125 187.199219 C 57.3125 275.144531 108.664062 338.925781 184.320312 371.671875 C 185.277344 372.101562 186.332031 372.300781 187.390625 372.300781 C 188.449219 372.300781 189.472656 372.101562 190.460938 371.671875 C 266.085938 338.925781 317.433594 275.113281 338.964844 187.199219 C 356.667969 114.835938 348.015625 53.929688 347.882812 53.335938 L 347.882812 53.367188 " fill-opacity="1" fill-rule="nonzero"/></g><path fill="#003554" d="M 305.449219 78.257812 C 289.464844 74.296875 273.945312 70.203125 259.25 66.046875 C 255.085938 64.824219 250.828125 67.234375 249.671875 71.359375 C 248.515625 75.488281 250.894531 79.777344 254.988281 80.933594 C 268.066406 84.632812 281.804688 88.296875 295.871094 91.859375 C 295.902344 104.902344 295.210938 118.171875 293.789062 131.308594 C 293.328125 135.535156 296.398438 139.367188 300.625 139.828125 C 300.921875 139.859375 301.21875 139.894531 301.484375 139.894531 C 305.414062 139.894531 308.75 136.957031 309.179688 132.960938 C 310.894531 117.214844 311.621094 101.269531 311.324219 85.621094 C 311.257812 82.121094 308.847656 79.085938 305.449219 78.257812 " fill-opacity="1" fill-rule="nonzero"/><path fill="#003554" d="M 237.75 232.855469 C 237.75 237.148438 234.28125 240.582031 229.988281 240.582031 L 144.757812 240.582031 C 140.464844 240.582031 136.996094 237.148438 136.996094 232.855469 L 136.996094 170.859375 C 136.996094 166.601562 140.464844 163.132812 144.757812 163.132812 L 229.988281 163.132812 C 234.28125 163.132812 237.75 166.601562 237.75 170.859375 Z M 229.988281 147.617188 L 144.757812 147.617188 C 131.945312 147.617188 121.511719 158.050781 121.511719 170.859375 L 121.511719 232.855469 C 121.511719 245.664062 131.945312 256.097656 144.757812 256.097656 L 229.988281 256.097656 C 242.804688 256.097656 253.238281 245.664062 253.238281 232.855469 L 253.238281 170.859375 C 253.238281 158.050781 242.804688 147.617188 229.988281 147.617188 " fill-opacity="1" fill-rule="nonzero"/><path fill="#003554" d="M 148.621094 139.894531 C 152.914062 139.894531 156.382812 136.425781 156.382812 132.136719 C 156.382812 115.070312 170.285156 101.171875 187.359375 101.171875 C 204.464844 101.171875 218.367188 115.070312 218.367188 132.136719 C 218.367188 136.425781 221.832031 139.894531 226.125 139.894531 C 230.417969 139.894531 233.855469 136.425781 233.855469 132.136719 C 233.855469 106.519531 213.015625 85.65625 187.359375 85.65625 C 161.730469 85.65625 140.863281 106.519531 140.863281 132.136719 C 140.894531 136.425781 144.328125 139.894531 148.621094 139.894531 " fill-opacity="1" fill-rule="nonzero"/></svg>