<svg xmlns="http://www.w3.org/2000/svg" xmlns:xlink="http://www.w3.org/1999/xlink" width="500" zoomAndPan="magnify" viewBox="0 0 375 374.999991" height="500" preserveAspectRatio="xMidYMid meet" version="1.0"><defs><clipPath id="286d0674d4"><path d="M 64.21875 0 L 310.96875 0 L 310.96875 374 L 64.21875 374 Z M 64.21875 0 " clip-rule="nonzero"/></clipPath></defs><g clip-path="url(#286d0674d4)"><path fill="#003554" d="M 187.59375 350.519531 L 290.023438 158.945312 C 291.976562 153.355469 293.417969 147.59375 294.433594 141.746094 C 295.453125 135.816406 295.960938 129.714844 295.960938 123.445312 C 295.960938 93.535156 283.835938 66.421875 264.246094 46.847656 C 244.574219 27.277344 217.527344 15.160156 187.59375 15.160156 C 157.660156 15.160156 130.613281 27.277344 110.941406 46.847656 C 91.351562 66.421875 79.226562 93.535156 79.226562 123.445312 C 79.226562 129.714844 79.734375 135.816406 80.753906 141.746094 C 81.769531 147.59375 83.210938 153.355469 85.164062 158.945312 Z M 187.59375 56.085938 C 206.585938 56.085938 223.714844 63.796875 236.097656 76.25 C 248.558594 88.621094 256.277344 105.734375 256.277344 124.714844 C 256.277344 128.613281 255.9375 132.425781 255.257812 136.238281 C 254.582031 140.050781 253.648438 143.78125 252.375 147.421875 C 247.628906 160.980469 238.722656 172.585938 227.191406 180.722656 C 216 188.601562 202.347656 193.261719 187.59375 193.261719 C 172.839844 193.261719 159.1875 188.601562 147.996094 180.722656 C 136.464844 172.585938 127.644531 160.980469 122.894531 147.421875 L 122.8125 147.507812 C 121.539062 143.863281 120.605469 140.136719 119.929688 136.238281 C 119.25 132.425781 118.910156 128.613281 118.910156 124.714844 C 118.910156 105.734375 126.628906 88.621094 139.089844 76.25 C 151.472656 63.796875 168.601562 56.085938 187.59375 56.085938 Z M 225.582031 86.757812 C 215.828125 77.097656 202.433594 71.082031 187.59375 71.082031 C 172.753906 71.082031 159.355469 77.097656 149.605469 86.757812 C 139.941406 96.5 133.917969 109.886719 133.917969 124.714844 C 133.917969 127.851562 134.171875 130.902344 134.683594 133.78125 C 135.191406 136.746094 135.953125 139.710938 136.886719 142.507812 C 140.617188 153.101562 147.570312 162.164062 156.558594 168.519531 C 165.292969 174.707031 175.976562 178.347656 187.59375 178.347656 C 199.210938 178.347656 209.894531 174.707031 218.628906 168.519531 C 227.617188 162.164062 234.570312 153.101562 238.300781 142.507812 C 239.234375 139.710938 239.996094 136.832031 240.503906 133.78125 C 241.015625 130.902344 241.269531 127.851562 241.269531 124.714844 C 241.269531 109.886719 235.246094 96.5 225.582031 86.757812 Z M 303.507812 165.300781 L 194.207031 369.753906 C 193.53125 371.109375 192.511719 372.210938 191.070312 372.886719 C 187.507812 374.835938 182.929688 373.480469 180.980469 369.835938 L 71.933594 165.808594 C 71.679688 165.300781 71.425781 164.878906 71.257812 164.285156 C 68.96875 157.84375 67.1875 151.066406 66 144.203125 C 64.898438 137.339844 64.21875 130.476562 64.21875 123.445312 C 64.21875 89.382812 78.039062 58.625 100.425781 36.257812 C 122.726562 13.972656 153.507812 0.164062 187.59375 0.164062 C 221.679688 0.164062 252.460938 13.972656 274.761719 36.257812 C 297.148438 58.625 310.96875 89.382812 310.96875 123.445312 C 310.96875 130.476562 310.289062 137.339844 309.1875 144.203125 C 308 151.066406 306.21875 157.84375 303.929688 164.285156 C 303.847656 164.625 303.675781 164.960938 303.507812 165.300781 Z M 303.507812 165.300781 " fill-opacity="1" fill-rule="nonzero"/></g></svg>