<svg xmlns="http://www.w3.org/2000/svg" xmlns:xlink="http://www.w3.org/1999/xlink" width="1080" zoomAndPan="magnify" viewBox="0 0 810 809.999993" height="1080" preserveAspectRatio="xMidYMid meet" version="1.0"><rect x="-81" width="972" fill="#ffffff" y="-80.999999" height="971.999992" fill-opacity="1"/><rect x="-81" width="972" fill="#ffffff" y="-80.999999" height="971.999992" fill-opacity="1"/><rect x="-81" width="972" fill="#ffffff" y="-80.999999" height="971.999992" fill-opacity="1"/><path fill="#003554" d="M 202.5 0 C 186.527344 0 173.570312 12.957031 173.570312 28.929688 L 173.570312 57.855469 L 115.714844 57.855469 C 52.132812 57.855469 0 109.988281 0 173.570312 L 0 694.285156 C 0 757.867188 52.132812 810 115.714844 810 L 694.285156 810 C 757.867188 810 810 757.867188 810 694.285156 L 810 173.570312 C 810 109.988281 757.867188 57.855469 694.285156 57.855469 L 636.429688 57.855469 L 636.429688 28.929688 C 636.429688 12.957031 623.472656 0 607.5 0 C 591.527344 0 578.570312 12.957031 578.570312 28.929688 L 578.570312 57.855469 L 433.929688 57.855469 L 433.929688 28.929688 C 433.929688 12.957031 420.972656 0 405 0 C 389.027344 0 376.070312 12.957031 376.070312 28.929688 L 376.070312 57.855469 L 231.429688 57.855469 L 231.429688 28.929688 C 231.429688 12.957031 218.472656 0 202.5 0 Z M 115.714844 115.714844 L 173.570312 115.714844 L 173.570312 144.644531 C 173.570312 160.613281 186.527344 173.570312 202.5 173.570312 C 218.472656 173.570312 231.429688 160.613281 231.429688 144.644531 L 231.429688 115.714844 L 376.070312 115.714844 L 376.070312 144.644531 C 376.070312 160.613281 389.027344 173.570312 405 173.570312 C 420.972656 173.570312 433.929688 160.613281 433.929688 144.644531 L 433.929688 115.714844 L 578.570312 115.714844 L 578.570312 144.644531 C 578.570312 160.613281 591.527344 173.570312 607.5 173.570312 C 623.472656 173.570312 636.429688 160.613281 636.429688 144.644531 L 636.429688 115.714844 L 694.285156 115.714844 C 726.832031 115.714844 752.144531 141.027344 752.144531 173.570312 L 752.144531 231.429688 L 57.855469 231.429688 L 57.855469 173.570312 C 57.855469 141.027344 83.167969 115.714844 115.714844 115.714844 Z M 568.476562 383.003906 C 580.53125 393.398438 582.035156 411.628906 571.640625 423.832031 L 398.070312 626.332031 C 387.070312 639.140625 367.484375 639.894531 355.582031 627.992188 L 239.867188 512.277344 C 228.566406 500.976562 228.566406 482.59375 239.867188 471.292969 C 251.167969 459.996094 269.546875 459.996094 280.847656 471.292969 L 374.414062 565.011719 L 527.644531 386.167969 C 537.890625 373.8125 555.820312 372.605469 568.476562 383.003906 Z M 568.476562 383.003906 " fill-opacity="1" fill-rule="nonzero"/></svg>