<svg xmlns="http://www.w3.org/2000/svg" xmlns:xlink="http://www.w3.org/1999/xlink" width="500" zoomAndPan="magnify" viewBox="0 0 375 374.999991" height="500" preserveAspectRatio="xMidYMid meet" version="1.0"><defs><clipPath id="32ea4ba3e0"><path d="M 0.0117188 28.011719 L 374.992188 28.011719 L 374.992188 350.25 L 0.0117188 350.25 Z M 0.0117188 28.011719 " clip-rule="nonzero"/></clipPath></defs><path fill="#003554" d="M 109.800781 40.855469 L 262.949219 40.855469 C 264.363281 40.855469 265.511719 39.710938 265.511719 38.292969 L 265.511719 30.605469 C 265.511719 29.191406 264.363281 28.042969 262.949219 28.042969 L 109.800781 28.042969 C 108.386719 28.042969 107.238281 29.191406 107.238281 30.605469 L 107.238281 38.292969 C 107.238281 39.710938 108.386719 40.855469 109.800781 40.855469 " fill-opacity="1" fill-rule="nonzero"/><g clip-path="url(#32ea4ba3e0)"><path fill="#003554" d="M 335.121094 337.4375 L 39.886719 337.4375 C 24.933594 337.4375 12.816406 325.308594 12.816406 310.347656 L 12.816406 130.003906 L 362.1875 130.003906 L 362.1875 310.347656 C 362.1875 325.308594 350.070312 337.4375 335.121094 337.4375 Z M 335.121094 28.039062 L 306.484375 28.039062 C 305.070312 28.039062 303.925781 29.1875 303.925781 30.605469 L 303.925781 38.292969 C 303.925781 39.707031 305.070312 40.855469 306.484375 40.855469 L 335.121094 40.855469 C 350.050781 40.855469 362.1875 53.003906 362.1875 67.976562 L 362.1875 117.1875 L 12.816406 117.1875 L 12.816406 67.976562 C 12.816406 53.003906 24.953125 40.855469 39.886719 40.855469 L 66.261719 40.855469 C 67.679688 40.855469 68.824219 39.707031 68.824219 38.292969 L 68.824219 30.605469 C 68.824219 29.1875 67.679688 28.039062 66.261719 28.039062 L 39.886719 28.039062 C 17.910156 28.039062 0.0117188 45.957031 0.0117188 67.976562 L 0.0117188 310.347656 C 0.0117188 332.296875 17.953125 350.253906 39.886719 350.253906 L 335.121094 350.253906 C 357.050781 350.253906 374.996094 332.296875 374.996094 310.347656 L 374.996094 67.976562 C 374.996094 45.957031 357.09375 28.039062 335.121094 28.039062 " fill-opacity="1" fill-rule="nonzero"/></g><path fill="#003554" d="M 88.03125 72.050781 C 94.382812 72.050781 99.554688 66.898438 99.554688 60.515625 L 99.554688 14.714844 C 99.554688 8.332031 94.382812 3.179688 88.03125 3.179688 C 81.65625 3.179688 76.507812 8.332031 76.507812 14.714844 L 76.507812 60.515625 C 76.507812 66.898438 81.65625 72.050781 88.03125 72.050781 " fill-opacity="1" fill-rule="nonzero"/><path fill="#003554" d="M 284.71875 68.898438 C 291.070312 68.898438 296.242188 63.71875 296.242188 57.363281 L 296.242188 11.53125 C 296.242188 5.175781 291.070312 0 284.71875 0 C 278.339844 0 273.195312 5.175781 273.195312 11.53125 L 273.195312 57.363281 C 273.195312 63.71875 278.339844 68.898438 284.71875 68.898438 " fill-opacity="1" fill-rule="nonzero"/></svg>