<svg xmlns="http://www.w3.org/2000/svg" xmlns:xlink="http://www.w3.org/1999/xlink" width="500" zoomAndPan="magnify" viewBox="0 0 375 374.999991" height="500" preserveAspectRatio="xMidYMid meet" version="1.0"><defs><clipPath id="e05ceb5d8e"><path d="M 17.8125 0 L 357.5625 0 L 357.5625 375 L 17.8125 375 Z M 17.8125 0 " clip-rule="nonzero"/></clipPath></defs><path fill="#003554" d="M 241.316406 98.214844 C 241.316406 96.460938 241.230469 94.710938 241.058594 92.964844 C 240.886719 91.21875 240.628906 89.484375 240.289062 87.761719 C 239.945312 86.042969 239.519531 84.34375 239.007812 82.664062 C 238.5 80.984375 237.90625 79.335938 237.234375 77.714844 C 236.5625 76.09375 235.8125 74.507812 234.984375 72.960938 C 234.15625 71.414062 233.253906 69.910156 232.28125 68.453125 C 231.304688 66.992188 230.257812 65.585938 229.144531 64.230469 C 228.03125 62.871094 226.851562 61.574219 225.609375 60.332031 C 224.367188 59.09375 223.066406 57.917969 221.710938 56.804688 C 220.351562 55.691406 218.945312 54.644531 217.484375 53.671875 C 216.023438 52.695312 214.519531 51.796875 212.96875 50.96875 C 211.417969 50.140625 209.832031 49.390625 208.210938 48.722656 C 206.589844 48.050781 204.9375 47.457031 203.253906 46.949219 C 201.574219 46.441406 199.871094 46.015625 198.148438 45.671875 C 196.425781 45.328125 194.691406 45.074219 192.945312 44.902344 C 191.195312 44.730469 189.445312 44.644531 187.6875 44.644531 C 185.929688 44.644531 184.179688 44.730469 182.429688 44.902344 C 180.683594 45.074219 178.949219 45.328125 177.226562 45.671875 C 175.5 46.015625 173.800781 46.441406 172.121094 46.949219 C 170.4375 47.457031 168.785156 48.050781 167.164062 48.722656 C 165.542969 49.390625 163.957031 50.140625 162.40625 50.96875 C 160.855469 51.796875 159.351562 52.695312 157.890625 53.671875 C 156.429688 54.644531 155.023438 55.691406 153.664062 56.804688 C 152.308594 57.917969 151.007812 59.09375 149.765625 60.332031 C 148.523438 61.574219 147.34375 62.871094 146.230469 64.230469 C 145.117188 65.585938 144.070312 66.992188 143.09375 68.453125 C 142.121094 69.910156 141.21875 71.414062 140.390625 72.960938 C 139.5625 74.507812 138.8125 76.09375 138.140625 77.714844 C 137.46875 79.335938 136.875 80.984375 136.367188 82.664062 C 135.855469 84.34375 135.429688 86.042969 135.085938 87.761719 C 134.746094 89.484375 134.488281 91.21875 134.316406 92.964844 C 134.144531 94.710938 134.058594 96.460938 134.058594 98.214844 C 134.058594 99.96875 134.144531 101.71875 134.316406 103.464844 C 134.488281 105.210938 134.746094 106.945312 135.085938 108.664062 C 135.429688 110.386719 135.855469 112.085938 136.367188 113.765625 C 136.875 115.445312 137.46875 117.09375 138.140625 118.714844 C 138.8125 120.335938 139.5625 121.921875 140.390625 123.46875 C 141.21875 125.015625 142.121094 126.519531 143.09375 127.976562 C 144.070312 129.4375 145.117188 130.84375 146.230469 132.199219 C 147.34375 133.554688 148.523438 134.855469 149.765625 136.09375 C 151.007812 137.335938 152.308594 138.511719 153.664062 139.625 C 155.023438 140.738281 156.429688 141.78125 157.890625 142.757812 C 159.351562 143.730469 160.855469 144.632812 162.40625 145.460938 C 163.957031 146.289062 165.542969 147.035156 167.164062 147.707031 C 168.785156 148.378906 170.4375 148.96875 172.121094 149.480469 C 173.800781 149.988281 175.5 150.414062 177.226562 150.757812 C 178.949219 151.097656 180.683594 151.355469 182.429688 151.527344 C 184.179688 151.699219 185.929688 151.785156 187.6875 151.785156 C 189.445312 151.785156 191.195312 151.699219 192.945312 151.527344 C 194.691406 151.355469 196.425781 151.097656 198.148438 150.757812 C 199.871094 150.414062 201.574219 149.988281 203.253906 149.480469 C 204.9375 148.96875 206.589844 148.378906 208.210938 147.707031 C 209.832031 147.035156 211.417969 146.289062 212.96875 145.460938 C 214.519531 144.632812 216.023438 143.730469 217.484375 142.757812 C 218.945312 141.78125 220.351562 140.738281 221.710938 139.625 C 223.066406 138.511719 224.367188 137.335938 225.609375 136.09375 C 226.851562 134.855469 228.03125 133.554688 229.144531 132.199219 C 230.257812 130.84375 231.304688 129.4375 232.28125 127.976562 C 233.253906 126.519531 234.15625 125.015625 234.984375 123.46875 C 235.8125 121.921875 236.5625 120.335938 237.234375 118.714844 C 237.90625 117.09375 238.5 115.445312 239.007812 113.765625 C 239.519531 112.085938 239.945312 110.386719 240.289062 108.664062 C 240.628906 106.945312 240.886719 105.210938 241.058594 103.464844 C 241.230469 101.71875 241.316406 99.96875 241.316406 98.214844 Z M 151.933594 98.214844 C 151.933594 97.042969 151.992188 95.878906 152.105469 94.714844 C 152.21875 93.550781 152.390625 92.394531 152.621094 91.246094 C 152.847656 90.097656 153.132812 88.964844 153.472656 87.847656 C 153.8125 86.726562 154.207031 85.628906 154.65625 84.546875 C 155.101562 83.464844 155.601562 82.410156 156.15625 81.378906 C 156.707031 80.347656 157.308594 79.34375 157.960938 78.371094 C 158.609375 77.398438 159.304688 76.460938 160.050781 75.558594 C 160.792969 74.652344 161.578125 73.789062 162.40625 72.960938 C 163.234375 72.132812 164.101562 71.347656 165.003906 70.605469 C 165.910156 69.863281 166.851562 69.167969 167.824219 68.519531 C 168.796875 67.867188 169.800781 67.269531 170.832031 66.71875 C 171.867188 66.164062 172.921875 65.667969 174.003906 65.21875 C 175.085938 64.769531 176.1875 64.378906 177.308594 64.039062 C 178.429688 63.699219 179.5625 63.414062 180.710938 63.1875 C 181.859375 62.957031 183.019531 62.785156 184.183594 62.671875 C 185.347656 62.558594 186.515625 62.5 187.6875 62.5 C 188.859375 62.5 190.027344 62.558594 191.191406 62.671875 C 192.355469 62.785156 193.515625 62.957031 194.664062 63.1875 C 195.8125 63.414062 196.945312 63.699219 198.066406 64.039062 C 199.1875 64.378906 200.289062 64.769531 201.371094 65.21875 C 202.453125 65.667969 203.507812 66.164062 204.542969 66.71875 C 205.574219 67.269531 206.578125 67.867188 207.550781 68.519531 C 208.523438 69.167969 209.464844 69.863281 210.371094 70.605469 C 211.273438 71.347656 212.140625 72.132812 212.96875 72.960938 C 213.796875 73.789062 214.582031 74.652344 215.324219 75.558594 C 216.070312 76.460938 216.765625 77.398438 217.414062 78.371094 C 218.066406 79.34375 218.667969 80.347656 219.21875 81.378906 C 219.769531 82.410156 220.273438 83.464844 220.71875 84.546875 C 221.167969 85.628906 221.5625 86.726562 221.902344 87.847656 C 222.242188 88.964844 222.527344 90.097656 222.753906 91.246094 C 222.984375 92.394531 223.15625 93.550781 223.269531 94.714844 C 223.382812 95.878906 223.441406 97.042969 223.441406 98.214844 C 223.441406 99.382812 223.382812 100.550781 223.269531 101.714844 C 223.15625 102.878906 222.984375 104.035156 222.753906 105.183594 C 222.527344 106.328125 222.242188 107.460938 221.902344 108.582031 C 221.5625 109.699219 221.167969 110.800781 220.71875 111.882812 C 220.273438 112.960938 219.769531 114.019531 219.21875 115.050781 C 218.667969 116.082031 218.066406 117.082031 217.414062 118.054688 C 216.765625 119.027344 216.070312 119.96875 215.324219 120.871094 C 214.582031 121.773438 213.796875 122.640625 212.96875 123.46875 C 212.140625 124.296875 211.273438 125.078125 210.371094 125.820312 C 209.464844 126.5625 208.523438 127.257812 207.550781 127.910156 C 206.578125 128.558594 205.574219 129.160156 204.542969 129.710938 C 203.507812 130.261719 202.453125 130.761719 201.371094 131.210938 C 200.289062 131.65625 199.1875 132.050781 198.066406 132.390625 C 196.945312 132.730469 195.8125 133.015625 194.664062 133.242188 C 193.515625 133.46875 192.355469 133.640625 191.191406 133.757812 C 190.027344 133.871094 188.859375 133.929688 187.6875 133.929688 C 186.515625 133.929688 185.347656 133.871094 184.183594 133.757812 C 183.019531 133.640625 181.859375 133.46875 180.710938 133.242188 C 179.5625 133.015625 178.429688 132.730469 177.308594 132.390625 C 176.1875 132.050781 175.085938 131.65625 174.003906 131.210938 C 172.921875 130.761719 171.867188 130.261719 170.832031 129.710938 C 169.800781 129.160156 168.796875 128.558594 167.824219 127.910156 C 166.851562 127.257812 165.910156 126.5625 165.003906 125.820312 C 164.101562 125.078125 163.234375 124.296875 162.40625 123.46875 C 161.578125 122.640625 160.792969 121.773438 160.050781 120.871094 C 159.304688 119.96875 158.609375 119.027344 157.960938 118.054688 C 157.308594 117.082031 156.707031 116.082031 156.15625 115.050781 C 155.601562 114.019531 155.101562 112.960938 154.65625 111.882812 C 154.207031 110.800781 153.8125 109.699219 153.472656 108.582031 C 153.132812 107.460938 152.847656 106.328125 152.621094 105.183594 C 152.390625 104.035156 152.21875 102.878906 152.105469 101.714844 C 151.992188 100.550781 151.933594 99.382812 151.933594 98.214844 Z M 151.933594 98.214844 " fill-opacity="1" fill-rule="nonzero"/><g clip-path="url(#e05ceb5d8e)"><path fill="#003554" d="M 229.875 243.125 L 275.640625 144.910156 C 276.738281 142.683594 277.753906 140.417969 278.683594 138.113281 C 279.613281 135.8125 280.457031 133.480469 281.214844 131.113281 C 281.976562 128.75 282.644531 126.359375 283.230469 123.945312 C 283.8125 121.535156 284.304688 119.101562 284.710938 116.652344 C 285.113281 114.203125 285.425781 111.742188 285.648438 109.265625 C 285.871094 106.792969 286.003906 104.316406 286.042969 101.832031 C 286.085938 99.351562 286.035156 96.871094 285.890625 94.390625 C 285.75 91.914062 285.515625 89.441406 285.191406 86.980469 C 284.867188 84.519531 284.453125 82.070312 283.949219 79.640625 C 283.445312 77.210938 282.855469 74.800781 282.171875 72.410156 C 281.492188 70.023438 280.722656 67.664062 279.871094 65.332031 C 279.015625 63 278.074219 60.703125 277.050781 58.441406 C 276.027344 56.179688 274.921875 53.957031 273.734375 51.777344 C 272.546875 49.59375 271.28125 47.460938 269.9375 45.371094 C 268.59375 43.28125 267.171875 41.246094 265.679688 39.261719 C 264.183594 37.277344 262.617188 35.351562 260.984375 33.480469 C 259.851562 32.171875 258.683594 30.894531 257.480469 29.648438 C 256.28125 28.402344 255.046875 27.191406 253.777344 26.007812 C 252.511719 24.828125 251.214844 23.683594 249.886719 22.574219 C 248.558594 21.460938 247.203125 20.386719 245.816406 19.351562 C 244.429688 18.3125 243.015625 17.3125 241.578125 16.351562 C 240.136719 15.386719 238.675781 14.464844 237.183594 13.582031 C 235.695312 12.695312 234.183594 11.851562 232.648438 11.050781 C 231.117188 10.246094 229.5625 9.484375 227.984375 8.765625 C 226.410156 8.046875 224.816406 7.371094 223.207031 6.734375 C 221.59375 6.101562 219.964844 5.511719 218.324219 4.964844 C 216.679688 4.417969 215.023438 3.914062 213.351562 3.457031 C 211.683594 2.996094 210 2.585938 208.308594 2.214844 C 206.617188 1.847656 204.914062 1.523438 203.207031 1.246094 C 201.496094 0.972656 199.78125 0.738281 198.058594 0.554688 C 196.335938 0.371094 194.609375 0.230469 192.878906 0.136719 C 191.152344 0.0429688 189.417969 0 187.6875 0 C 185.957031 0 184.222656 0.0429688 182.496094 0.136719 C 180.765625 0.230469 179.039062 0.371094 177.316406 0.554688 C 175.59375 0.738281 173.878906 0.972656 172.167969 1.246094 C 170.460938 1.523438 168.757812 1.847656 167.066406 2.214844 C 165.375 2.585938 163.691406 2.996094 162.023438 3.457031 C 160.351562 3.914062 158.695312 4.417969 157.050781 4.964844 C 155.410156 5.511719 153.78125 6.101562 152.167969 6.734375 C 150.558594 7.371094 148.964844 8.046875 147.390625 8.765625 C 145.8125 9.484375 144.257812 10.246094 142.726562 11.050781 C 141.191406 11.851562 139.679688 12.695312 138.191406 13.582031 C 136.699219 14.464844 135.238281 15.386719 133.796875 16.351562 C 132.359375 17.3125 130.945312 18.3125 129.558594 19.351562 C 128.171875 20.386719 126.816406 21.460938 125.488281 22.574219 C 124.160156 23.683594 122.863281 24.828125 121.597656 26.007812 C 120.328125 27.191406 119.09375 28.402344 117.894531 29.648438 C 116.691406 30.894531 115.523438 32.171875 114.390625 33.480469 C 112.746094 35.351562 111.171875 37.28125 109.667969 39.269531 C 108.167969 41.253906 106.738281 43.292969 105.386719 45.386719 C 104.035156 47.480469 102.761719 49.617188 101.566406 51.804688 C 100.375 53.992188 99.261719 56.21875 98.234375 58.484375 C 97.203125 60.753906 96.261719 63.054688 95.402344 65.394531 C 94.542969 67.730469 93.769531 70.097656 93.085938 72.492188 C 92.402344 74.886719 91.808594 77.304688 91.300781 79.742188 C 90.796875 82.179688 90.382812 84.632812 90.058594 87.105469 C 89.734375 89.574219 89.5 92.050781 89.359375 94.535156 C 89.21875 97.023438 89.171875 99.511719 89.214844 102 C 89.257812 104.492188 89.390625 106.976562 89.617188 109.457031 C 89.84375 111.933594 90.164062 114.402344 90.574219 116.859375 C 90.980469 119.316406 91.480469 121.753906 92.070312 124.171875 C 92.660156 126.59375 93.339844 128.988281 94.105469 131.359375 C 94.871094 133.726562 95.722656 136.066406 96.664062 138.371094 C 97.601562 140.679688 98.625 142.949219 99.734375 145.179688 L 145.5 243.394531 C 80.425781 249.375 17.855469 271.160156 17.855469 308.035156 C 17.855469 351.519531 105.363281 375 187.6875 375 C 270.011719 375 357.519531 351.519531 357.519531 308.035156 C 357.519531 271.160156 295.394531 249.375 229.875 243.125 Z M 116.179688 137.589844 C 115.261719 135.753906 114.410156 133.890625 113.628906 131.996094 C 112.84375 130.097656 112.132812 128.175781 111.496094 126.226562 C 110.855469 124.277344 110.289062 122.308594 109.792969 120.320312 C 109.296875 118.328125 108.878906 116.324219 108.53125 114.300781 C 108.183594 112.28125 107.914062 110.25 107.71875 108.207031 C 107.519531 106.167969 107.398438 104.121094 107.355469 102.070312 C 107.308594 100.019531 107.339844 97.972656 107.445312 95.921875 C 107.550781 93.875 107.734375 91.832031 107.992188 89.800781 C 108.246094 87.765625 108.578125 85.742188 108.984375 83.730469 C 109.390625 81.722656 109.871094 79.730469 110.425781 77.753906 C 110.976562 75.78125 111.601562 73.828125 112.300781 71.898438 C 113 69.96875 113.765625 68.070312 114.605469 66.199219 C 115.441406 64.324219 116.347656 62.488281 117.320312 60.679688 C 118.292969 58.875 119.332031 57.109375 120.4375 55.378906 C 121.542969 53.652344 122.707031 51.964844 123.9375 50.320312 C 125.164062 48.679688 126.453125 47.082031 127.800781 45.535156 C 128.722656 44.453125 129.675781 43.398438 130.652344 42.367188 C 131.632812 41.339844 132.640625 40.335938 133.675781 39.359375 C 134.710938 38.382812 135.769531 37.4375 136.855469 36.519531 C 137.941406 35.601562 139.050781 34.710938 140.183594 33.855469 C 141.316406 32.996094 142.472656 32.167969 143.652344 31.371094 C 144.828125 30.574219 146.027344 29.8125 147.25 29.082031 C 148.46875 28.351562 149.707031 27.652344 150.964844 26.988281 C 152.222656 26.324219 153.496094 25.691406 154.789062 25.097656 C 156.078125 24.503906 157.386719 23.941406 158.707031 23.417969 C 160.03125 22.890625 161.363281 22.402344 162.714844 21.949219 C 164.0625 21.496094 165.421875 21.082031 166.792969 20.703125 C 168.164062 20.324219 169.542969 19.980469 170.933594 19.675781 C 172.320312 19.371094 173.71875 19.105469 175.121094 18.875 C 176.527344 18.644531 177.9375 18.453125 179.351562 18.300781 C 180.765625 18.148438 182.179688 18.03125 183.601562 17.953125 C 185.023438 17.878906 186.445312 17.839844 187.867188 17.839844 C 189.289062 17.839844 190.710938 17.878906 192.128906 17.953125 C 193.550781 18.03125 194.96875 18.148438 196.382812 18.300781 C 197.796875 18.453125 199.207031 18.644531 200.609375 18.875 C 202.015625 19.105469 203.410156 19.371094 204.800781 19.675781 C 206.1875 19.980469 207.570312 20.324219 208.941406 20.703125 C 210.3125 21.082031 211.671875 21.496094 213.019531 21.949219 C 214.367188 22.402344 215.703125 22.890625 217.023438 23.417969 C 218.347656 23.941406 219.652344 24.503906 220.945312 25.097656 C 222.234375 25.691406 223.511719 26.324219 224.769531 26.988281 C 226.027344 27.652344 227.265625 28.351562 228.484375 29.082031 C 229.703125 29.8125 230.902344 30.574219 232.082031 31.371094 C 233.257812 32.167969 234.414062 32.996094 235.550781 33.855469 C 236.683594 34.710938 237.792969 35.601562 238.878906 36.519531 C 239.964844 37.4375 241.023438 38.382812 242.058594 39.359375 C 243.089844 40.335938 244.097656 41.339844 245.078125 42.367188 C 246.058594 43.398438 247.007812 44.453125 247.933594 45.535156 C 249.273438 47.085938 250.554688 48.6875 251.777344 50.332031 C 253 51.980469 254.160156 53.667969 255.257812 55.402344 C 256.355469 57.132812 257.386719 58.902344 258.355469 60.710938 C 259.320312 62.519531 260.21875 64.359375 261.050781 66.234375 C 261.882812 68.109375 262.640625 70.011719 263.332031 71.941406 C 264.023438 73.875 264.640625 75.828125 265.1875 77.804688 C 265.730469 79.777344 266.203125 81.773438 266.601562 83.785156 C 267 85.792969 267.324219 87.816406 267.574219 89.851562 C 267.824219 91.886719 267.996094 93.929688 268.09375 95.976562 C 268.191406 98.023438 268.214844 100.070312 268.160156 102.121094 C 268.109375 104.171875 267.980469 106.214844 267.773438 108.253906 C 267.570312 110.292969 267.289062 112.324219 266.9375 114.34375 C 266.582031 116.363281 266.152344 118.367188 265.652344 120.351562 C 265.148438 122.339844 264.574219 124.308594 263.925781 126.25 C 263.277344 128.195312 262.558594 130.117188 261.769531 132.007812 C 260.980469 133.898438 260.121094 135.761719 259.195312 137.589844 L 187.6875 291.339844 Z M 187.6875 357.144531 C 100.714844 357.144531 35.734375 331.25 35.734375 308.035156 C 35.734375 289.195312 80.425781 266.160156 153.542969 260.355469 L 179.554688 316.25 C 179.910156 317.03125 180.367188 317.742188 180.929688 318.390625 C 181.488281 319.039062 182.128906 319.59375 182.851562 320.058594 C 183.574219 320.519531 184.34375 320.871094 185.167969 321.113281 C 185.988281 321.355469 186.828125 321.476562 187.6875 321.476562 C 188.546875 321.476562 189.386719 321.355469 190.207031 321.113281 C 191.03125 320.871094 191.800781 320.519531 192.523438 320.058594 C 193.246094 319.59375 193.886719 319.039062 194.445312 318.390625 C 195.007812 317.742188 195.464844 317.03125 195.820312 316.25 L 221.832031 260.355469 C 294.949219 266.160156 339.640625 289.195312 339.640625 308.035156 C 339.640625 331.25 274.660156 357.144531 187.6875 357.144531 Z M 187.6875 357.144531 " fill-opacity="1" fill-rule="nonzero"/></g></svg>