<svg xmlns="http://www.w3.org/2000/svg" xmlns:xlink="http://www.w3.org/1999/xlink" width="800" zoomAndPan="magnify" viewBox="0 0 600 449.999984" height="600" preserveAspectRatio="xMidYMid meet" version="1.0"><defs><clipPath id="fed6a63636"><path d="M 105.273438 2 L 494.523438 2 L 494.523438 449 L 105.273438 449 Z M 105.273438 2 " clip-rule="nonzero"/></clipPath></defs><g clip-path="url(#fed6a63636)"><path fill="#003554" d="M 109.625 446.203125 C 110.414062 446.851562 111.285156 447.367188 112.234375 447.75 C 113.179688 448.132812 114.164062 448.363281 115.183594 448.449219 C 116.203125 448.53125 117.210938 448.460938 118.207031 448.238281 C 119.207031 448.011719 120.148438 447.644531 121.035156 447.136719 L 489.824219 234.105469 C 490.207031 233.886719 490.570312 233.640625 490.917969 233.375 C 491.269531 233.105469 491.597656 232.816406 491.910156 232.503906 C 492.21875 232.195312 492.507812 231.863281 492.777344 231.515625 C 493.042969 231.167969 493.289062 230.800781 493.507812 230.421875 C 493.726562 230.039062 493.921875 229.648438 494.089844 229.242188 C 494.257812 228.832031 494.398438 228.417969 494.511719 227.992188 C 494.625 227.570312 494.710938 227.136719 494.769531 226.703125 C 494.824219 226.265625 494.855469 225.828125 494.855469 225.390625 C 494.855469 224.949219 494.824219 224.511719 494.769531 224.074219 C 494.710938 223.640625 494.625 223.207031 494.511719 222.785156 C 494.398438 222.359375 494.257812 221.941406 494.089844 221.535156 C 493.921875 221.128906 493.726562 220.738281 493.507812 220.355469 C 493.289062 219.976562 493.042969 219.609375 492.777344 219.261719 C 492.507812 218.914062 492.21875 218.582031 491.910156 218.273438 C 491.597656 217.960938 491.269531 217.671875 490.917969 217.402344 C 490.570312 217.136719 490.207031 216.890625 489.824219 216.671875 L 121.035156 3.644531 C 120.148438 3.132812 119.207031 2.761719 118.207031 2.539062 C 117.210938 2.3125 116.203125 2.242188 115.183594 2.328125 C 114.164062 2.410156 113.179688 2.644531 112.230469 3.027344 C 111.285156 3.414062 110.414062 3.929688 109.625 4.578125 C 108.832031 5.226562 108.15625 5.980469 107.597656 6.835938 C 107.035156 7.691406 106.613281 8.609375 106.332031 9.59375 C 106.050781 10.578125 105.925781 11.582031 105.949219 12.605469 C 105.976562 13.628906 106.152344 14.625 106.480469 15.59375 L 177.605469 225.390625 L 106.480469 435.183594 C 106.152344 436.152344 105.976562 437.148438 105.953125 438.171875 C 105.925781 439.195312 106.054688 440.199219 106.335938 441.183594 C 106.617188 442.167969 107.035156 443.089844 107.597656 443.945312 C 108.160156 444.800781 108.835938 445.550781 109.625 446.203125 Z M 109.625 446.203125 " fill-opacity="1" fill-rule="nonzero"/></g></svg>