<svg xmlns="http://www.w3.org/2000/svg" xmlns:xlink="http://www.w3.org/1999/xlink" width="500" zoomAndPan="magnify" viewBox="0 0 375 374.999991" height="500" preserveAspectRatio="xMidYMid meet" version="1.0"><defs><clipPath id="936bab761b"><path d="M 53.164062 53.164062 L 321.664062 53.164062 L 321.664062 321.664062 L 53.164062 321.664062 Z M 53.164062 53.164062 " clip-rule="nonzero"/></clipPath></defs><g clip-path="url(#936bab761b)"><path fill="#ffffff" d="M 187.355469 77.371094 C 223.179688 77.371094 227.417969 77.488281 241.59375 78.136719 C 254.65625 78.722656 261.773438 80.902344 266.539062 82.785156 C 272.773438 85.195312 277.246094 88.136719 281.953125 92.84375 C 286.660156 97.550781 289.542969 102.019531 292.011719 108.257812 C 293.835938 112.964844 296.011719 120.082031 296.660156 133.199219 C 297.308594 147.378906 297.425781 151.613281 297.425781 187.441406 C 297.425781 223.269531 297.308594 227.503906 296.660156 241.683594 C 296.070312 254.742188 293.894531 261.863281 292.011719 266.628906 C 289.601562 272.863281 286.660156 277.335938 281.953125 282.039062 C 277.246094 286.746094 272.773438 289.628906 266.539062 292.101562 C 261.832031 293.925781 254.714844 296.101562 241.59375 296.746094 C 227.417969 297.394531 223.179688 297.511719 187.355469 297.511719 C 151.527344 297.511719 147.289062 297.394531 133.113281 296.746094 C 120.050781 296.160156 112.933594 293.984375 108.167969 292.101562 C 101.933594 289.6875 97.460938 286.746094 92.753906 282.039062 C 88.046875 277.335938 85.167969 272.863281 82.695312 266.628906 C 80.871094 261.921875 78.695312 254.800781 78.046875 241.683594 C 77.402344 227.503906 77.28125 223.269531 77.28125 187.441406 C 77.28125 151.613281 77.402344 147.378906 78.046875 133.199219 C 78.636719 120.140625 80.8125 113.023438 82.695312 108.257812 C 85.105469 102.019531 88.046875 97.550781 92.753906 92.84375 C 97.460938 88.136719 101.933594 85.253906 108.167969 82.785156 C 112.875 80.960938 119.992188 78.78125 133.113281 78.136719 C 147.289062 77.488281 151.527344 77.371094 187.355469 77.371094 M 187.355469 53.191406 C 150.878906 53.191406 146.347656 53.367188 131.996094 54.015625 C 117.699219 54.664062 107.933594 56.957031 99.402344 60.25 C 90.578125 63.664062 83.105469 68.253906 75.636719 75.722656 C 68.222656 83.195312 63.632812 90.667969 60.222656 99.492188 C 56.925781 108.019531 54.632812 117.789062 53.984375 132.082031 C 53.339844 146.378906 53.164062 150.96875 53.164062 187.382812 C 53.164062 223.859375 53.339844 228.386719 53.984375 242.742188 C 54.632812 257.039062 56.925781 266.804688 60.222656 275.332031 C 63.632812 284.160156 68.222656 291.628906 75.695312 299.101562 C 83.164062 306.574219 90.636719 311.160156 99.460938 314.574219 C 107.992188 317.867188 117.757812 320.164062 132.054688 320.808594 C 146.347656 321.457031 150.9375 321.632812 187.414062 321.632812 C 223.886719 321.632812 228.417969 321.457031 242.773438 320.808594 C 257.066406 320.164062 266.832031 317.867188 275.363281 314.574219 C 284.1875 311.160156 291.660156 306.574219 299.128906 299.101562 C 306.601562 291.628906 311.191406 284.160156 314.601562 275.332031 C 317.898438 266.804688 320.191406 257.039062 320.839844 242.742188 C 321.484375 228.445312 321.664062 223.859375 321.664062 187.382812 C 321.664062 150.910156 321.484375 146.378906 320.839844 132.023438 C 320.191406 117.726562 317.898438 107.960938 314.601562 99.433594 C 311.191406 90.609375 306.601562 83.136719 299.128906 75.664062 C 291.660156 68.195312 284.1875 63.605469 275.363281 60.191406 C 266.832031 56.898438 257.066406 54.605469 242.773438 53.957031 C 228.417969 53.367188 223.828125 53.191406 187.355469 53.191406 " fill-opacity="1" fill-rule="nonzero"/></g><path fill="#ffffff" d="M 187.355469 118.492188 C 149.289062 118.492188 118.464844 149.320312 118.464844 187.382812 C 118.464844 225.445312 149.347656 256.332031 187.414062 256.332031 C 225.476562 256.332031 256.359375 225.503906 256.359375 187.382812 C 256.300781 149.320312 225.417969 118.492188 187.355469 118.492188 M 187.355469 232.152344 C 162.644531 232.152344 142.644531 212.152344 142.644531 187.441406 C 142.644531 162.734375 162.644531 142.730469 187.355469 142.730469 C 212.0625 142.730469 232.066406 162.734375 232.066406 187.441406 C 232.125 212.089844 212.0625 232.152344 187.355469 232.152344 " fill-opacity="1" fill-rule="nonzero"/><path fill="#ffffff" d="M 275.128906 115.785156 C 275.128906 124.671875 267.890625 131.90625 259.007812 131.90625 C 250.125 131.90625 242.890625 124.671875 242.890625 115.785156 C 242.890625 106.902344 250.125 99.667969 259.007812 99.667969 C 267.890625 99.667969 275.128906 106.84375 275.128906 115.785156 " fill-opacity="1" fill-rule="nonzero"/></svg>