<svg xmlns="http://www.w3.org/2000/svg" xmlns:xlink="http://www.w3.org/1999/xlink" width="500" zoomAndPan="magnify" viewBox="0 0 375 374.999991" height="500" preserveAspectRatio="xMidYMid meet" version="1.0"><defs><clipPath id="73620cc4bf"><path d="M 45.152344 87.324219 L 330.152344 87.324219 L 330.152344 287 L 45.152344 287 Z M 45.152344 87.324219 " clip-rule="nonzero"/></clipPath></defs><g clip-path="url(#73620cc4bf)"><path fill="#ffffff" d="M 323.929688 118.734375 C 323.523438 117.230469 323.019531 115.761719 322.417969 114.324219 C 321.820312 112.890625 321.128906 111.496094 320.347656 110.148438 C 319.566406 108.804688 318.699219 107.511719 317.75 106.277344 C 316.800781 105.042969 315.773438 103.875 314.671875 102.777344 C 313.566406 101.675781 312.398438 100.648438 311.164062 99.703125 C 309.925781 98.753906 308.632812 97.886719 307.285156 97.109375 C 305.933594 96.328125 304.542969 95.636719 303.101562 95.039062 C 301.664062 94.441406 300.191406 93.9375 298.6875 93.527344 C 276.554688 87.496094 187.472656 87.496094 187.472656 87.496094 C 187.472656 87.496094 98.390625 87.671875 76.253906 93.707031 C 74.746094 94.113281 73.277344 94.617188 71.835938 95.214844 C 70.398438 95.816406 69.003906 96.503906 67.65625 97.285156 C 66.304688 98.066406 65.011719 98.929688 63.777344 99.878906 C 62.539062 100.828125 61.371094 101.851562 60.269531 102.953125 C 59.167969 104.054688 58.140625 105.222656 57.191406 106.457031 C 56.238281 107.691406 55.375 108.980469 54.59375 110.328125 C 53.8125 111.675781 53.121094 113.066406 52.519531 114.503906 C 51.921875 115.941406 51.417969 117.410156 51.007812 118.914062 C 45.152344 141.015625 45.152344 187.226562 45.152344 187.226562 C 45.152344 187.226562 45.152344 233.433594 51.191406 255.714844 C 51.597656 257.21875 52.101562 258.6875 52.703125 260.125 C 53.300781 261.5625 53.992188 262.953125 54.773438 264.300781 C 55.558594 265.648438 56.421875 266.9375 57.371094 268.171875 C 58.324219 269.40625 59.347656 270.574219 60.453125 271.675781 C 61.554688 272.777344 62.722656 273.800781 63.960938 274.75 C 65.195312 275.699219 66.488281 276.5625 67.835938 277.34375 C 69.1875 278.125 70.582031 278.8125 72.019531 279.410156 C 73.457031 280.011719 74.929688 280.515625 76.433594 280.921875 C 98.566406 286.957031 187.652344 286.957031 187.652344 286.957031 C 187.652344 286.957031 276.738281 286.957031 298.875 280.925781 C 300.378906 280.519531 301.851562 280.015625 303.289062 279.417969 C 304.726562 278.816406 306.121094 278.128906 307.472656 277.347656 C 308.820312 276.566406 310.113281 275.703125 311.347656 274.753906 C 312.585938 273.804688 313.753906 272.78125 314.855469 271.679688 C 315.960938 270.578125 316.984375 269.410156 317.9375 268.175781 C 318.886719 266.941406 319.753906 265.652344 320.535156 264.304688 C 321.316406 262.957031 322.007812 261.566406 322.605469 260.128906 C 323.207031 258.691406 323.710938 257.222656 324.117188 255.71875 C 330.152344 233.617188 330.152344 187.226562 330.152344 187.226562 C 330.152344 187.226562 329.972656 141.015625 323.929688 118.734375 Z M 323.929688 118.734375 " fill-opacity="1" fill-rule="nonzero"/></g><path fill="#003554" d="M 159.117188 229.964844 L 233.015625 187.226562 L 159.113281 144.488281 Z M 159.117188 229.964844 " fill-opacity="1" fill-rule="nonzero"/></svg>